<svg width="73" height="73" viewBox="0 0 73 73" fill="none" xmlns="http://www.w3.org/2000/svg">
<g clip-path="url(#clip0_278_6180)">
<path d="M36.3288 36.5747C36.5687 32.9221 31.894 15.541 30.1168 12.1683C28.2488 8.62302 23.567 1.31323 19.0181 3.71795C14.0871 6.32326 17.8488 14.1159 19.7168 17.6611C21.494 21.0361 33.4942 34.5455 36.3288 36.5747Z" fill="white"/>
<path d="M36.3287 36.5746C34.5073 33.3978 21.0025 21.5212 17.6554 19.6995C14.1359 17.7823 6.19797 14.2953 3.73832 18.8202C1.07369 23.7253 8.51554 28.1266 12.035 30.0438C15.3821 31.8654 32.8466 36.4603 36.3264 36.5769L36.3287 36.5746Z" fill="#F7F8DA"/>
<path d="M36.3286 36.5745C32.8743 35.371 14.8998 35.2824 11.18 36.1034C7.26925 36.9664 -1.00646 39.5507 0.102252 44.5817C1.30413 50.0326 9.80344 48.4652 13.7142 47.5999C17.434 46.7765 33.6243 38.7717 36.3286 36.5745Z" fill="white"/>
<path d="M36.3289 36.5746C32.686 36.9058 16.2743 44.2436 13.2231 46.527C10.0157 48.9294 3.54051 54.6998 6.61973 58.8235C9.95983 63.2971 17.057 58.357 20.2666 55.9547C23.3156 53.6712 34.7683 39.693 36.3289 36.5723V36.5746Z" fill="#F7F8DA"/>
<path d="M36.3287 36.5747C33.331 38.6716 22.7144 53.1932 21.1958 56.6918C19.6026 60.3724 16.8378 68.5988 21.5568 70.6513C26.6694 72.8741 30.3892 65.0605 31.9824 61.3823C33.4987 57.8837 36.522 40.057 36.331 36.5747H36.3287Z" fill="#F7F8DA"/>
<path d="M36.3292 36.5747C35.104 40.0244 34.885 58.0236 35.6793 61.7508C36.5132 65.6763 39.0357 73.9843 44.0668 72.9068C49.5195 71.7429 48.0148 63.2202 47.1787 59.2971C46.3844 55.5676 38.507 39.299 36.3292 36.5747Z" fill="white"/>
<path d="M36.3291 36.5747C36.781 40.2063 44.6654 56.3839 47.0505 59.3578C49.5567 62.4855 55.5358 68.7714 59.5491 65.5457C63.8977 62.0517 58.7292 55.1174 56.2206 51.9873C53.8355 49.0135 39.4968 38.0278 36.3291 36.5747Z" fill="#F7F8DA"/>
<path d="M36.3291 36.5747C38.5232 39.5043 53.3813 49.6316 56.924 51.0287C60.6508 52.5005 68.9568 54.9868 70.8434 50.1961C72.8885 45.0018 64.9622 41.5475 61.2378 40.0757C57.695 38.6762 39.7996 36.2622 36.3314 36.5747H36.3291Z" fill="white"/>
<path d="M36.3291 36.5747C39.7088 37.9672 57.6508 39.0588 61.4101 38.4453C65.3628 37.7993 73.7689 35.6814 72.9421 30.5968C72.0453 25.0853 63.4715 26.1768 59.5188 26.8229C55.7594 27.4363 39.1498 34.5269 36.3291 36.5724V36.5747Z" fill="#F7F8DA"/>
<path d="M36.3291 36.5746C39.9021 35.8026 55.3029 26.5196 58.0537 23.8816C60.9443 21.106 66.6695 14.5869 63.1128 10.8691C59.2533 6.8363 52.8083 12.6044 49.9154 15.3776C47.167 18.0202 37.496 33.2882 36.3291 36.5746Z" fill="#F7F8DA"/>
<path d="M36.3288 36.5745C38.7978 33.8736 45.9927 17.3811 46.7101 13.6329C47.4648 9.69344 48.3708 1.06116 43.3188 0.0885426C37.8451 -0.963378 35.9165 7.47298 35.1642 11.4124C34.4468 15.1583 35.3808 33.2159 36.3288 36.5722V36.5745Z" fill="white"/>
<path d="M36.6852 30.3656C32.8816 31.4665 28.5888 33.3255 31.1416 39.0073C33.6968 44.689 37.37 45.8272 41.1456 43.8307C44.9213 41.8341 47.4694 39.1705 45.8204 35.2077C44.1713 31.245 41.4135 28.9942 36.6828 30.3656H36.6852Z" fill="#FFE67A"/>
<path d="M32.0342 40.7379C34.5148 44.906 37.7897 45.6057 41.1461 43.8354C43.9807 42.338 46.1213 40.465 46.3169 37.9507C42.4621 41.349 37.4263 44.2272 32.0342 40.7379Z" fill="#FDD23E"/>
</g>
<defs>
<clipPath id="clip0_278_6180">
<rect width="73" height="73" fill="white"/>
</clipPath>
</defs>
</svg>
