<svg width="72" height="66" viewBox="0 0 72 66" fill="none" xmlns="http://www.w3.org/2000/svg">
<g clip-path="url(#clip0_278_6074)">
<path d="M32.5371 26.4897C32.6099 26.4164 32.6827 26.343 32.7636 26.2778C32.9254 25.9682 33.0872 25.6586 33.2652 25.3408C33.524 22.9127 34.5353 19.9712 35.862 17.1275C35.8458 17.1275 35.8216 17.1112 35.8054 17.103C34.6162 19.6045 33.2166 22.1549 31.6553 24.583C32.1649 24.8356 32.4562 25.5608 32.5452 26.4815L32.5371 26.4897Z" fill="#FDD23E"/>
<path d="M18.7847 22.3259C18.7847 22.3259 18.7766 22.3422 18.7686 22.3504C18.8818 22.4237 18.987 22.4889 19.1002 22.5622C18.9951 22.4807 18.8899 22.4074 18.7847 22.3259Z" fill="#FDD23E"/>
<path d="M43.168 25.74C43.4754 25.6422 43.7828 25.5363 44.0983 25.4385C44.0821 25.4059 44.074 25.3733 44.0579 25.3489C43.8799 25.4059 43.7019 25.4711 43.5239 25.5281C43.4107 25.6015 43.2893 25.6667 43.1761 25.74H43.168Z" fill="#FDD23E"/>
<path d="M26.6396 37.6933C26.4131 37.514 26.2998 37.2451 26.2756 36.9192C25.2239 38.0436 23.8891 39.3147 22.3682 40.6022C23.5816 39.934 24.8113 39.2903 26.041 38.6792C26.2756 38.3696 26.5183 38.0599 26.7691 37.7584C26.7286 37.734 26.6801 37.7259 26.6396 37.6933Z" fill="#FDD23E"/>
<path d="M26.3488 27.2881C26.2356 27.1577 26.1223 27.0355 26.001 26.9051C24.6742 26.2125 23.2585 25.3814 21.8428 24.4607C23.0482 25.3325 24.2374 26.2614 25.4104 27.2392C25.6774 27.1822 26.001 27.2066 26.3488 27.2881Z" fill="#FDD23E"/>
<path d="M27.376 22.5134C27.6349 23.0675 27.8856 23.6297 28.1202 24.2164C27.9585 23.7275 27.8128 23.2305 27.6672 22.7334C27.5701 22.6601 27.4731 22.5868 27.3841 22.5134H27.376Z" fill="#FDD23E"/>
<path d="M17.9754 35.8273C17.7327 35.9577 17.482 36.0799 17.2393 36.2021C17.2959 36.3488 17.3606 36.4873 17.4253 36.634C17.8784 36.3162 18.388 36.0066 18.9543 35.7051C18.6226 35.754 18.299 35.7947 17.9835 35.8273H17.9754Z" fill="#FDD23E"/>
<path d="M30.709 16.1416C30.709 16.1416 30.6362 16.1416 30.5957 16.1416C30.62 16.2394 30.6442 16.3372 30.6685 16.4431C30.6847 16.3453 30.6928 16.2394 30.709 16.1416Z" fill="#FDD23E"/>
<path d="M61.5069 23.0267C59.7514 21.8289 51.613 23.0919 44.0975 25.4467C43.7901 25.5445 43.4746 25.6423 43.1671 25.7482C41.5006 26.7341 39.4377 27.6956 37.2211 28.5593C37.2372 28.5919 37.2696 28.6163 37.2777 28.6571C37.4395 29.0563 37.2939 29.4963 36.9541 29.92C43.6121 28.3963 52.5029 28.2415 52.5271 30.2215C52.5433 31.4112 52.0094 32.2749 51.0952 32.8778C55.9896 32.7556 60.3339 32.3808 61.9114 31.9652C65.9564 30.8978 64.3222 24.966 61.4988 23.043L61.5069 23.0267Z" fill="#FDD23E"/>
<path d="M30.2645 38.9645C30.2645 38.9645 30.1917 38.9727 30.1512 38.9645C30.0137 38.9482 29.8924 38.8912 29.7791 38.8179C28.9135 42.4845 27.522 46.2082 26.1791 48.2534C24.9009 54.5927 24.1243 61.1275 24.2618 63.2216C24.5368 67.426 30.6204 66.9371 33.0393 64.509C34.2852 63.2542 34.7139 57.2897 34.3256 50.7794C34.2609 50.7956 34.2043 50.8282 34.1395 50.8364C31.9795 51.2031 30.3858 45.4831 30.2564 38.9482L30.2645 38.9645Z" fill="#FDD23E"/>
<path d="M21.1144 30.6695C17.0694 29.6918 13.5422 28.2088 13.0326 26.8888C9.11707 26.2451 5.5737 25.9273 3.85055 26.1473C-0.291471 26.6769 -0.849673 31.4355 1.70673 33.7169C2.47527 34.4095 4.42493 34.7762 6.98943 34.8495C8.20291 34.271 9.65909 33.7658 11.269 33.334C12.1508 31.8021 16.2443 30.7999 21.1144 30.6695Z" fill="#FDD23E"/>
<path d="M40.4654 22.334C43.58 20.5332 46.3225 19.5962 46.9697 20.574C47.9243 22.0162 46.3467 23.8007 43.5153 25.5362C43.6933 25.4792 43.8712 25.414 44.0492 25.357C52.2119 22.5784 58.2793 18.7081 57.2681 16.3695C55.7148 12.7599 48.3288 15.8399 41.9054 20.1095C41.5414 20.8103 41.0479 21.5599 40.4492 22.334H40.4654Z" fill="#FDD23E"/>
<path d="M31.4534 24.5259C31.5181 24.5422 31.5828 24.5585 31.6395 24.5911C33.2089 22.1548 34.6084 19.6045 35.7896 17.1111C39.7455 8.78371 41.3392 1.05112 38.8556 0.154825C34.835 -1.30369 31.8255 7.84668 30.7172 16.1415C30.701 16.2393 30.6929 16.3452 30.6768 16.443C31.2188 18.7082 31.4938 21.56 31.4534 24.5341V24.5259Z" fill="#FDD23E"/>
<path d="M21.8508 24.4606C23.2665 25.3814 24.6741 26.2043 26.009 26.9051C21.8265 22.171 18.0566 15.5873 19.618 14.5525C15.6297 10.7473 12.1186 8.75101 10.7919 10.0792C8.17887 12.6947 12.96 17.991 18.7847 22.3258C18.8899 22.4073 18.995 22.4806 19.1002 22.5621C20.0144 23.1569 20.9366 23.7925 21.8508 24.4606Z" fill="#FDD23E"/>
<path d="M34.8271 40.1868C35.5633 42.9653 35.9436 45.8008 35.7737 47.8542C38.7184 55.3179 42.4478 60.6223 44.624 59.612C46.331 58.8216 45.1741 54.6008 42.8442 49.8423C40.2636 49.109 37.2865 44.9045 34.8271 40.1868Z" fill="#FDD23E"/>
<path d="M24.666 27.9727C24.6983 27.8342 24.755 27.7038 24.844 27.5816C24.9815 27.3942 25.1756 27.2801 25.4103 27.2312C24.2453 26.2534 23.048 25.3327 21.8426 24.4527C20.9285 23.7845 20.0062 23.149 19.0921 22.5542C18.9788 22.4808 18.8736 22.4075 18.7604 22.3423C11.5361 17.6816 4.78104 15.3431 3.59992 17.5919C2.03048 20.5742 6.96531 23.866 13.0246 26.2453C13.9873 23.7193 19.181 24.9334 24.6579 27.9727H24.666Z" fill="#FDD23E"/>
<path d="M36.8898 35.2244C36.8898 35.371 36.8574 35.5096 36.8008 35.6481C36.9059 35.7214 37.003 35.8029 37.1082 35.8762C41.5415 38.0844 47.6898 42.0118 51.9774 46.0451C57.1307 48.514 61.2484 49.557 62.0251 47.9925C63.3922 45.2303 58.6516 41.8325 52.5761 39.1273C51.1522 38.4918 49.6637 37.897 48.1509 37.351C46.2659 38.5651 41.6952 37.5303 36.8817 35.2244H36.8898Z" fill="#FDD23E"/>
<path d="M22.3685 40.6105C23.8894 39.3231 25.2242 38.052 26.2759 36.9275C26.2597 36.7564 26.2678 36.5771 26.3002 36.3816C21.6242 39.6979 16.0746 42.2238 15.2817 40.6105C14.8287 39.6979 15.1685 38.7283 16.0665 37.7749C7.80669 40.2357 1.58557 43.8697 2.54017 46.2246C4.06107 49.9727 8.41343 49.2964 13.1379 46.9009C15.4435 44.7497 18.8008 42.5742 22.3685 40.6105Z" fill="#FDD23E"/>
<path d="M37.1084 35.8762C42.4315 39.9421 47.9893 46.7214 45.3682 49.2066C44.7291 49.8096 44.0333 50.0296 43.2972 49.9399C47.965 55.774 52.7623 59.4407 55.8122 56.6621C58.6437 54.0873 56.2167 50.0214 51.9776 46.0451C47.6819 42.0118 41.5417 38.0844 37.1084 35.8762Z" fill="#FDD23E"/>
<path d="M41.914 16.1414C41.914 16.1414 41.9383 16.1659 41.9544 16.1822C45.0771 11.8148 46.4524 7.8792 44.4219 6.21698C43.1437 5.17401 38.7508 10.9185 35.8547 17.1355C34.5279 19.9792 33.5167 22.9207 33.2578 25.3488C36.1378 20.1014 40.4497 14.9599 41.914 16.1414Z" fill="#FDD23E"/>
<path d="M27.0523 11.603C28.0231 11.44 28.8563 12.0918 29.5278 13.2896C28.735 7.39036 26.8662 3.0637 24.0833 3.36518C23.0559 3.47925 23.0559 6.3474 23.7597 10.0548C24.6172 11.603 25.4424 13.3955 26.1786 15.3348C26.0087 13.2163 26.2433 11.7415 27.0523 11.603Z" fill="#FDD23E"/>
<path d="M27.3761 22.5134C27.4731 22.5949 27.5702 22.6601 27.6592 22.7334C26.8907 20.0852 26.3406 17.4045 26.1788 15.3349C25.4345 13.4038 24.6174 11.6112 23.7599 10.0549C21.5109 6.00524 18.9788 3.58524 16.7945 4.53857C15.5486 5.0845 17.4093 9.68006 20.4269 14.3408C22.4008 14.3978 25.2161 17.8852 27.3761 22.5134Z" fill="#FDD23E"/>
<path d="M11.0991 34.1081C11.0667 33.8392 11.1234 33.5784 11.269 33.334C9.65909 33.7658 8.20291 34.2792 6.98942 34.8495C4.35212 36.1044 2.81504 37.6607 3.171 39.4207C3.51077 41.091 10.9616 39.3147 17.2393 36.194C17.4901 36.0718 17.7328 35.9495 17.9755 35.8192C14.335 36.2021 11.3094 35.7784 11.0991 34.0999V34.1081Z" fill="#FDD23E"/>
<path d="M24.0596 49.7852C22.9028 49.2963 22.6115 47.9437 22.9513 46.1267C21.8268 47.4712 20.6295 48.7586 19.4403 49.9074C17.8789 53.8674 17.6767 57.0615 19.6506 58.1534C20.8156 58.7971 23.194 54.7067 24.99 49.6141C24.6583 49.8341 24.3509 49.8993 24.0677 49.7852H24.0596Z" fill="#FDD23E"/>
<path d="M26.0413 38.6873C26.1141 38.6466 26.195 38.614 26.2678 38.5733C26.4377 38.3044 26.6076 38.0355 26.7775 37.7666C26.7775 37.7666 26.7694 37.7666 26.7613 37.7666C26.5186 38.0681 26.2759 38.3777 26.0332 38.6873H26.0413Z" fill="#FDD23E"/>
<path d="M22.9433 46.1266C23.3235 44.0488 24.537 41.3518 26.2682 38.5732C26.1954 38.614 26.1145 38.6466 26.0417 38.6873C24.8121 39.2984 23.5824 39.9421 22.3689 40.6103C18.8013 42.574 15.444 44.7495 13.1383 46.9007C10.4121 49.4429 9.15812 51.9444 10.768 54.0058C12.0867 55.6925 15.7352 53.4681 19.4323 49.9073C20.6296 48.7584 21.8188 47.471 22.9433 46.1266Z" fill="#FDD23E"/>
<path d="M52.536 30.2133C52.5118 28.2333 43.621 28.3881 36.963 29.9118C36.7608 30.1644 36.4857 30.417 36.1621 30.6533C37.141 30.914 37.8529 31.411 37.9338 32.0792C41.1212 32.4214 44.3572 33.1303 46.501 33.994C48.0785 33.9288 49.4538 33.6844 50.4893 33.2118C50.7077 33.1058 50.9181 32.9918 51.1041 32.8695C52.0264 32.2666 52.5522 31.4029 52.536 30.2133Z" fill="#FFE893"/>
<path d="M26.0009 26.9053C26.1142 27.0356 26.2275 27.166 26.3488 27.2882C26.5996 27.3534 26.8666 27.443 27.1416 27.5653C26.8423 26.449 26.9556 25.4793 27.6998 25.1616C27.9344 25.0638 28.1852 25.0801 28.4441 25.186C28.3308 24.8682 28.2257 24.5423 28.1205 24.2164C27.8859 23.6379 27.6351 23.0675 27.3762 22.5134C25.2243 17.8853 22.409 14.3979 20.427 14.3408C20.152 14.3408 19.8931 14.3816 19.6585 14.5201C19.6423 14.5282 19.6342 14.5445 19.618 14.5527C18.0567 15.5875 21.8266 22.1712 26.009 26.9053H26.0009Z" fill="#FFE893"/>
<path d="M45.3765 49.2067C47.9895 46.7215 42.4318 39.9423 37.1167 35.8763C37.0116 35.7949 36.9145 35.7215 36.8093 35.6482C36.777 35.7297 36.7446 35.8112 36.688 35.8926C36.2754 36.4386 35.3693 36.3571 34.3985 35.9171C34.6412 36.8134 34.6089 37.62 34.1963 38.06C34.4309 38.7608 34.6493 39.4778 34.8435 40.1949C37.3028 44.9126 40.2799 49.1171 42.8606 49.8504C43.0143 49.8912 43.168 49.9237 43.3136 49.94C44.0498 50.0297 44.7536 49.8097 45.3846 49.2067H45.3765Z" fill="#FFE893"/>
<path d="M23.5817 31.1912C22.7566 31.0363 21.9233 30.8652 21.1143 30.6697C16.2442 30.8 12.1507 31.8023 11.2689 33.3341C11.1314 33.5786 11.0667 33.8393 11.099 34.1082C11.3094 35.7867 14.335 36.2104 17.9754 35.8275C18.299 35.7949 18.6226 35.7541 18.9462 35.7052C20.5237 34.8578 22.4896 34.0756 24.6496 33.4319C24.8437 33.22 25.0784 33.0082 25.3534 32.8045C24.2775 32.5193 23.517 31.9489 23.5736 31.183L23.5817 31.1912Z" fill="#FFE893"/>
<path d="M34.8273 40.1866C34.6332 39.4614 34.4148 38.7444 34.1802 38.0518C34.0831 38.1577 33.9698 38.2473 33.8242 38.3125C33.1932 38.5733 32.457 38.0518 31.8341 37.1799C31.5509 38.2392 31.0089 38.9888 30.2646 38.9725C30.3941 45.4992 31.9878 51.2273 34.1478 50.8607C34.2125 50.8525 34.2772 50.8281 34.3339 50.8036C35.1914 50.5266 35.6444 49.4266 35.7739 47.8703C35.9438 45.817 35.5635 42.9733 34.8273 40.2029V40.1866Z" fill="#FFE893"/>
<path d="M46.978 20.5742C46.3308 19.5964 43.5884 20.5253 40.4738 22.3342C39.1228 24.086 37.2297 25.9682 35.0535 27.7364C35.0131 27.8505 34.9646 27.9727 34.916 28.0868C35.9677 27.8016 36.89 27.8994 37.2378 28.5594C39.4544 27.6957 41.5093 26.7342 43.1839 25.7482C43.3052 25.6749 43.4185 25.6097 43.5317 25.5364C46.3632 23.8008 47.9407 22.0164 46.9861 20.5742H46.978Z" fill="#FFE893"/>
<path d="M35.9678 33.5214C36.526 34.0836 36.8819 34.6866 36.89 35.2243C41.7035 37.5221 46.2743 38.5569 48.1592 37.351C48.5718 37.0821 48.8631 36.7155 48.9925 36.2266C49.1947 35.4606 48.1835 34.6866 46.5008 34.0103C44.357 33.1466 41.121 32.4377 37.9336 32.0955C37.9417 32.1851 37.9579 32.2666 37.9417 32.3643C37.8527 33.0488 37.0356 33.4318 35.9678 33.5377V33.5214Z" fill="#FFE893"/>
<path d="M15.2899 40.6103C16.0827 42.2236 21.6323 39.7059 26.3083 36.3814C26.3649 36.0718 26.4701 35.7377 26.6238 35.3873C25.5155 35.6888 24.5447 35.5748 24.2373 34.8251C24.0593 34.3933 24.2373 33.9044 24.6579 33.4399C22.4979 34.0836 20.5321 34.8577 18.9546 35.7133C18.3964 36.0148 17.8786 36.3244 17.4256 36.6422C16.8916 37.017 16.4386 37.3918 16.0746 37.7748C15.1766 38.7281 14.8368 39.6977 15.2899 40.6103Z" fill="#FFE893"/>
<path d="M21.1146 30.6697C21.9236 30.8652 22.7487 31.0363 23.582 31.1911C23.582 31.1667 23.582 31.1504 23.582 31.126C23.671 30.4415 24.4881 30.0585 25.5559 29.9526C24.9007 29.2926 24.5204 28.5674 24.666 27.9808C19.1811 24.9415 13.9955 23.7356 13.0328 26.2534C13.0247 26.2778 13.0085 26.3023 13.0004 26.3267C12.9357 26.5141 12.96 26.7015 13.0328 26.8971C13.5425 28.2171 17.0777 29.6919 21.1146 30.6778V30.6697Z" fill="#FFE893"/>
<path d="M27.0527 11.6029C26.2437 11.7415 26.0091 13.2163 26.179 15.3348C26.3408 17.4044 26.8909 20.0852 27.6594 22.7333C27.8051 23.2303 27.9588 23.7192 28.1125 24.2163C28.2176 24.5422 28.3228 24.86 28.4361 25.1859C28.8648 25.3489 29.2936 25.7481 29.6819 26.3022C29.9731 25.1859 30.5637 24.3955 31.3565 24.5015C31.3889 24.5015 31.4131 24.5259 31.4374 24.5259C31.4779 21.5518 31.2028 18.7081 30.6608 16.4348C30.6365 16.337 30.6122 16.2311 30.588 16.1333C30.2967 15.0007 29.9408 14.0392 29.5201 13.2815C28.8487 12.0837 28.0154 11.4318 27.0446 11.5948L27.0527 11.6029Z" fill="#FFE893"/>
<path d="M33.2574 25.3407C33.0875 25.6504 32.9177 25.96 32.7559 26.2778C33.5001 25.6096 34.2929 25.3326 34.8754 25.7807C35.3527 26.1474 35.3446 26.897 35.0372 27.7363C37.2215 25.9682 39.1145 24.0859 40.4574 22.3341C41.0561 21.56 41.5496 20.8104 41.9136 20.1096C42.7873 18.4148 42.9006 17.0052 41.946 16.1822C41.9298 16.1659 41.9217 16.1578 41.9055 16.1415C40.4413 14.96 36.1374 20.1015 33.2493 25.3489L33.2574 25.3407Z" fill="#FFE893"/>
<path d="M29.7866 38.8259C29.3416 38.5325 29.0746 37.8399 28.9937 36.9844C28.2414 37.7422 27.4162 38.117 26.7852 37.7666C26.6072 38.0355 26.4373 38.3044 26.2755 38.5733C24.5443 41.3518 23.3308 44.0488 22.9506 46.1266C22.6189 47.9436 22.9102 49.2962 24.0589 49.7851C24.3421 49.9073 24.6576 49.834 24.9812 49.614C25.3695 49.3533 25.774 48.8807 26.1866 48.2533C27.5295 46.2081 28.9209 42.4844 29.7866 38.8177V38.8259Z" fill="#FFE893"/>
<path d="M32.165 29.594C32.9659 28.877 33.9772 28.3311 34.9075 28.0866C34.9641 27.9644 35.0046 27.8503 35.045 27.7363C35.3525 26.897 35.3605 26.1474 34.8832 25.7807C34.3008 25.3326 33.508 25.6177 32.7637 26.2777C32.6909 26.3429 32.6181 26.4163 32.5372 26.4896C32.6262 27.4429 32.4967 28.5918 32.165 29.594Z" fill="#F5BF59"/>
<path d="M30.9438 31.1911C31.1946 30.6044 31.6314 30.0666 32.1654 29.594C32.4971 28.5837 32.6346 27.4429 32.5375 26.4896C32.4485 25.5689 32.1492 24.8437 31.6476 24.5911C31.591 24.5585 31.5263 24.5422 31.4616 24.5259C31.4292 24.5259 31.413 24.5015 31.3807 24.5015C30.5798 24.3955 29.9973 25.1859 29.7061 26.3022C30.6364 27.614 31.2998 29.7163 30.96 31.1911H30.9438Z" fill="#F5BF59"/>
<path d="M30.7582 31.7369C30.7986 31.5495 30.8633 31.3703 30.9442 31.191C31.284 29.7162 30.6206 27.614 29.6903 26.3021C29.302 25.7562 28.8651 25.3488 28.4445 25.1858C28.1856 25.088 27.9348 25.0636 27.7002 25.1614C26.9559 25.471 26.8427 26.4488 27.142 27.5651C28.7842 28.3147 30.653 30.1154 30.7663 31.7369H30.7582Z" fill="#F5BF59"/>
<path d="M30.7581 31.737C30.6368 30.1237 28.7761 28.323 27.1338 27.5652C26.8588 27.443 26.5999 27.3533 26.341 27.2882C25.9932 27.2067 25.6696 27.1741 25.4026 27.2393C25.168 27.2882 24.9738 27.4022 24.8363 27.5896C24.7473 27.7119 24.6907 27.8422 24.6583 27.9807C24.5127 28.5756 24.8848 29.2926 25.5482 29.9526C27.3442 29.7733 29.852 30.3926 30.7581 31.737Z" fill="#F5BF59"/>
<path d="M25.3614 32.8126C26.8337 31.7534 29.3092 31.0282 30.7573 31.7371C29.8512 30.4008 27.3515 29.7734 25.5474 29.9526C24.4796 30.0585 23.6625 30.4415 23.5735 31.126C23.5735 31.1504 23.5735 31.1667 23.5735 31.1911C23.5249 31.9571 24.2854 32.5274 25.3533 32.8126H25.3614Z" fill="#F5BF59"/>
<path d="M30.7578 31.737C29.3097 31.0362 26.8342 31.7614 25.3618 32.8125C25.0868 33.0081 24.8441 33.2199 24.658 33.4399C24.2454 33.9044 24.0594 34.3933 24.2373 34.8251C24.5448 35.5747 25.5155 35.6888 26.6239 35.3873C27.3681 33.7251 29.156 31.8592 30.7659 31.737H30.7578Z" fill="#F5BF59"/>
<path d="M30.7575 31.7371C29.1557 31.8593 27.3678 33.7334 26.6154 35.3874C26.4617 35.7378 26.3485 36.0719 26.2999 36.3815C26.2676 36.5771 26.2595 36.7563 26.2757 36.9274C26.2999 37.2452 26.4132 37.5222 26.6397 37.7015C26.6802 37.7341 26.7206 37.7422 26.7692 37.7667C26.7692 37.7667 26.7772 37.7667 26.7853 37.7667C27.4163 38.1171 28.2415 37.7422 28.9939 36.9845C28.8159 35.1756 29.4388 32.6497 30.7656 31.7371H30.7575Z" fill="#F5BF59"/>
<path d="M30.7575 31.7371C29.4308 32.6497 28.8079 35.1756 28.9859 36.9845C29.0668 37.84 29.3337 38.5326 29.7787 38.826C29.8919 38.8993 30.0133 38.9563 30.1508 38.9726C30.1912 38.9726 30.2236 38.9726 30.2641 38.9726C31.0083 38.9889 31.5503 38.2393 31.8335 37.18C30.7818 35.6971 30.0618 33.2037 30.7656 31.7452L30.7575 31.7371Z" fill="#F5BF59"/>
<path d="M30.7573 31.7372C30.0616 33.1957 30.7735 35.6972 31.8252 37.172C32.4481 38.052 33.1843 38.5734 33.8153 38.3046C33.9609 38.2475 34.0742 38.1497 34.1712 38.0438C34.5838 37.6038 34.6162 36.7972 34.3735 35.9009C32.7312 35.1431 30.8706 33.3505 30.7492 31.729L30.7573 31.7372Z" fill="#F5BF59"/>
<path d="M35.9677 33.5215C34.1717 33.7008 31.6639 33.0734 30.7578 31.7371C30.8792 33.3504 32.7398 35.1511 34.3821 35.9089C35.361 36.3571 36.2589 36.4385 36.6715 35.8845C36.7282 35.8111 36.7605 35.7215 36.7929 35.64C36.8495 35.5097 36.8819 35.363 36.8819 35.2163C36.8819 34.6785 36.5178 34.0756 35.9596 33.5134L35.9677 33.5215Z" fill="#F5BF59"/>
<path d="M30.7578 31.737C31.6639 33.0733 34.1717 33.7007 35.9677 33.5215C37.0356 33.4155 37.8526 33.0326 37.9416 32.3481C37.9497 32.2585 37.9416 32.1689 37.9335 32.0792C37.8526 31.4111 37.1407 30.9222 36.1619 30.6533C34.6895 31.7126 32.214 32.4378 30.7659 31.7289L30.7578 31.737Z" fill="#F5BF59"/>
<path d="M34.9001 28.0867C33.9779 28.3393 32.9585 28.877 32.1576 29.5941C31.6318 30.0667 31.1949 30.6044 30.9361 31.1911C30.8552 31.3704 30.7985 31.5496 30.75 31.737C32.1981 32.4459 34.6817 31.7207 36.146 30.6615C36.4695 30.4252 36.7446 30.1726 36.9469 29.92C37.2866 29.4882 37.4403 29.0563 37.2704 28.657C37.2543 28.6244 37.23 28.5919 37.2138 28.5593C36.8579 27.9074 35.9356 27.8015 34.892 28.0867H34.9001Z" fill="#F5BF59"/>
</g>
<defs>
<clipPath id="clip0_278_6074">
<rect width="72" height="66" fill="white"/>
</clipPath>
</defs>
</svg>
